<svg width="26" height="26" viewBox="0 0 26 26" fill="none" xmlns="http://www.w3.org/2000/svg">
<path id="Vector" d="M1 7.96774V7.46774H0.5V7.96774H1ZM22.6774 7.96774L22.9548 7.55172L22.8288 7.46774H22.6774V7.96774ZM1 23.4516H0.5V23.7192L0.72265 23.8676L1 23.4516ZM25 9.51613H25.5V9.24854L25.2773 9.1001L25 9.51613ZM25 25V25.5C25.2761 25.5 25.5 25.2761 25.5 25H25ZM3.32258 25L3.04523 25.416L3.17119 25.5H3.32258V25ZM1.5 23.4516V7.96774H0.5V23.4516H1.5ZM24.5 9.51613V25H25.5V9.51613H24.5ZM25 24.5H3.32258V25.5H25V24.5ZM3.82258 25V9.51613H2.82258V25H3.82258ZM3.59993 9.1001L1.27735 7.55172L0.72265 8.38377L3.04523 9.93215L3.59993 9.1001ZM3.59993 24.584L1.27735 23.0356L0.72265 23.8676L3.04523 25.416L3.59993 24.584ZM25.2773 9.1001L22.9548 7.55172L22.4001 8.38377L24.7226 9.93215L25.2773 9.1001ZM13.3871 1.5H14.9355V0.5H13.3871V1.5ZM19.8548 6.41935V11.0645H20.8548V6.41935H19.8548ZM8.46774 11.0645V6.41935H7.46774V11.0645H8.46774ZM14.9355 1.5C17.6524 1.5 19.8548 3.70247 19.8548 6.41935H20.8548C20.8548 3.15019 18.2047 0.5 14.9355 0.5V1.5ZM13.3871 0.5C13.3165 0.5 13.2461 0.50124 13.176 0.5037L13.2111 1.50308C13.2695 1.50103 13.3282 1.5 13.3871 1.5V0.5ZM13.176 0.5037C10.0044 0.61503 7.46774 3.22085 7.46774 6.41935H8.46774C8.46774 3.76138 10.5759 1.59559 13.2111 1.50308L13.176 0.5037ZM11.4516 1.5H13V0.5H11.4516V1.5ZM13 1.5C13.0589 1.5 13.1176 1.50103 13.176 1.50308L13.2111 0.5037C13.141 0.50124 13.0706 0.5 13 0.5V1.5ZM13.176 1.50308C15.8112 1.59559 17.9194 3.76138 17.9194 6.41935H18.9194C18.9194 3.22085 16.3827 0.61503 13.2111 0.5037L13.176 1.50308ZM11.4516 0.5C8.18244 0.5 5.53226 3.15019 5.53226 6.41935H6.53226C6.53226 3.70247 8.73473 1.5 11.4516 1.5V0.5ZM6.53226 7.96774V6.41935H5.53226V7.96774H6.53226ZM17.9194 6.41935V7.96774H18.9194V6.41935H17.9194ZM3.32258 10.0161H25V9.01613H3.32258V10.0161ZM1 8.46774H22.6774V7.46774H1V8.46774Z" fill="black"/>
</svg>
